<svg xmlns="http://www.w3.org/2000/svg" width="52" height="52"><path stroke="#000" d="m13.5 11 1 2ZM29.5 11l1 2ZM33.5 14l2 3ZM18.5 15l1 2ZM22.5 18l1 2ZM38.5 18l2 3ZM43.5 22l2 3ZM45.5 27l-2 3ZM40.5 31l-2 3ZM23.5 32l-1 2ZM19.5 35l-1 2ZM35.5 35l-2 3ZM14.5 39l-1 2ZM30.5 39l-1 2Z" opacity=".196"/><path stroke="#000" d="m10.5 10 2.5 1.5-1.5-.5ZM26.5 10l2.5 1.5-1.5-.5ZM15.5 13l2 3ZM31.5 13l2 3ZM20.5 17l1 2ZM36.5 17l1 2ZM41.5 21l1 2ZM42.5 29l-1 2ZM21.5 33l-1 2ZM37.5 33l-1 2ZM17.5 36l-2 3ZM33.5 36l-2 3ZM12.5 40l-1 2-1.5-.5ZM28.5 40l-1 2-1.5-.5Z" opacity=".804"/><path stroke="#000" d="m9.5 11 4 1 10 8 .5-7.5 1.5-1.5 4 1L45 24.5q.8 3.8-1.5 4.5l-14 11-4 1-1.5-1.5-.5-7.5-10 8-4 1L8 39.5v-27Z"/></svg>