<svg xmlns="http://www.w3.org/2000/svg" width="136" height="136"><path fill="#c8aa6e" d="M120 16c1.444 9.155 2.47 18.153-3.078 26.099-4.393 5.41-9.35 10.254-14.34 15.108A2320 2320 0 0 0 97.15 62.7a932 932 0 0 1-11.458 11.346A703 703 0 0 0 72.616 87.16a902 902 0 0 1-12.693 12.726 429 429 0 0 0-5.332 5.384c-15.164 15.495-15.164 15.495-26.473 15.905-4.11-.123-8.055-.534-12.118-1.175-1.444-9.155-2.47-18.153 3.078-26.099 4.393-5.41 9.35-10.254 14.34-15.108q2.72-2.742 5.432-5.493a932 932 0 0 1 11.458-11.346c4.424-4.31 8.767-8.69 13.076-13.114a902 902 0 0 1 12.693-12.726 429 429 0 0 0 5.332-5.384C93.75 18.117 102.182 13.19 120 16"/><path fill="#c8aa6e" d="M120 51v69H52l6-7 1.885-2.633c3.238-4.086 6.07-6.476 11.303-7.082 4.968-.28 9.908-.072 14.874.153q2.613.067 5.225.123c4.24.098 8.476.253 12.713.439l-.238-3.25c-2.185-32.584-2.185-32.584 3.543-40.613C115.76 51 115.76 51 120 51M16 16h68l-6 7-1.885 2.633c-3.238 4.086-6.07 6.476-11.303 7.082-4.968.28-9.908.072-14.874-.153q-2.612-.067-5.225-.123c-4.24-.098-8.476-.253-12.713-.439l.238 3.158c2.185 31.669 2.185 31.669-3.543 39.639C25.212 78.554 21.412 81.414 17 84h-1Z"/></svg>