<svg xmlns="http://www.w3.org/2000/svg" width="90" height="90"><path d="M47.25 8.75C50 10 50 10 51 11c.088 2.073.107 4.148.098 6.223l-.01 3.818-.026 4.021q-.008 2.018-.013 4.034A3769 3769 0 0 1 51 39l2.523-.08c3.091-.085 6.183-.147 9.275-.195a454 454 0 0 0 5.985-.165l3.799-.048 3.507-.08C79 39 79 39 80.948 41.327 82 44 82 44 81.25 47.25 80 50 80 50 79 51c-2.073.088-4.148.107-6.223.098l-3.818-.01-4.022-.026q-2.016-.008-4.033-.013A3769 3769 0 0 1 51 51l.08 2.523c.085 3.091.147 6.183.195 9.275.037 1.996.1 3.99.164 5.985l.05 3.799c.025 1.157.052 2.315.079 3.507C51 79 51 79 48.673 80.948 46 82 46 82 42.75 81.25 40 80 40 80 39 79a133 133 0 0 1-.098-6.223l.01-3.818.026-4.022q.008-2.016.013-4.033Q38.97 55.952 39 51l-2.523.08c-3.091.085-6.183.147-9.275.195-1.996.037-3.99.1-5.985.164l-3.799.05c-1.157.025-2.315.052-3.507.079C11 51 11 51 9.052 48.673 8 46 8 46 8.75 42.75 10 40 10 40 11 39c2.073-.088 4.148-.107 6.223-.098l3.818.01 4.021.026q2.018.008 4.034.013Q34.048 38.97 39 39l-.08-2.523a757 757 0 0 1-.195-9.275 454 454 0 0 0-.165-5.985l-.048-3.799-.08-3.507C39 11 39 11 41.327 9.052 44 8 44 8 47.25 8.75"/></svg>