<svg width="52" height="52" version="1.1" xmlns="http://www.w3.org/2000/svg" desc="Created with imagetracer.js version 1.2.6" ><path fill="rgb(0,0,0)" stroke="rgb(0,0,0)" stroke-width="1" opacity="0.19607843137254902" d="M 13.5 11 L 14.5 13 L 13.5 11 Z " /><path fill="rgb(0,0,0)" stroke="rgb(0,0,0)" stroke-width="1" opacity="0.19607843137254902" d="M 29.5 11 L 30.5 13 L 29.5 11 Z " /><path fill="rgb(0,0,0)" stroke="rgb(0,0,0)" stroke-width="1" opacity="0.19607843137254902" d="M 33.5 14 L 35.5 17 L 33.5 14 Z " /><path fill="rgb(0,0,0)" stroke="rgb(0,0,0)" stroke-width="1" opacity="0.19607843137254902" d="M 18.5 15 L 19.5 17 L 18.5 15 Z " /><path fill="rgb(0,0,0)" stroke="rgb(0,0,0)" stroke-width="1" opacity="0.19607843137254902" d="M 22.5 18 L 23.5 20 L 22.5 18 Z " /><path fill="rgb(0,0,0)" stroke="rgb(0,0,0)" stroke-width="1" opacity="0.19607843137254902" d="M 38.5 18 L 40.5 21 L 38.5 18 Z " /><path fill="rgb(0,0,0)" stroke="rgb(0,0,0)" stroke-width="1" opacity="0.19607843137254902" d="M 43.5 22 L 45.5 25 L 43.5 22 Z " /><path fill="rgb(0,0,0)" stroke="rgb(0,0,0)" stroke-width="1" opacity="0.19607843137254902" d="M 45.5 27 L 43.5 30 L 45.5 27 Z " /><path fill="rgb(0,0,0)" stroke="rgb(0,0,0)" stroke-width="1" opacity="0.19607843137254902" d="M 40.5 31 L 38.5 34 L 40.5 31 Z " /><path fill="rgb(0,0,0)" stroke="rgb(0,0,0)" stroke-width="1" opacity="0.19607843137254902" d="M 23.5 32 L 22.5 34 L 23.5 32 Z " /><path fill="rgb(0,0,0)" stroke="rgb(0,0,0)" stroke-width="1" opacity="0.19607843137254902" d="M 19.5 35 L 18.5 37 L 19.5 35 Z " /><path fill="rgb(0,0,0)" stroke="rgb(0,0,0)" stroke-width="1" opacity="0.19607843137254902" d="M 35.5 35 L 33.5 38 L 35.5 35 Z " /><path fill="rgb(0,0,0)" stroke="rgb(0,0,0)" stroke-width="1" opacity="0.19607843137254902" d="M 14.5 39 L 13.5 41 L 14.5 39 Z " /><path fill="rgb(0,0,0)" stroke="rgb(0,0,0)" stroke-width="1" opacity="0.19607843137254902" d="M 30.5 39 L 29.5 41 L 30.5 39 Z " /><path fill="rgb(0,0,0)" stroke="rgb(0,0,0)" stroke-width="1" opacity="0" d="M 0 0 L 52 0 L 52 52 L 0 52 L 0 0 Z M 10 10 L 8 12 L 8 41 L 10 42 L 14 41 L 24 33 L 24 41 L 26 42 L 30 41 L 44 30 Q 47 29 46 25 L 30 11 L 26 10 L 24 12 L 24 19 L 14 11 L 10 10 Z " /><path fill="rgb(0,0,0)" stroke="rgb(0,0,0)" stroke-width="1" opacity="0.803921568627451" d="M 10.5 10 L 13 11.5 L 11.5 11 L 10.5 10 Z " /><path fill="rgb(0,0,0)" stroke="rgb(0,0,0)" stroke-width="1" opacity="0.803921568627451" d="M 26.5 10 L 29 11.5 L 27.5 11 L 26.5 10 Z " /><path fill="rgb(0,0,0)" stroke="rgb(0,0,0)" stroke-width="1" opacity="0.803921568627451" d="M 15.5 13 L 17.5 16 L 15.5 13 Z " /><path fill="rgb(0,0,0)" stroke="rgb(0,0,0)" stroke-width="1" opacity="0.803921568627451" d="M 31.5 13 L 33.5 16 L 31.5 13 Z " /><path fill="rgb(0,0,0)" stroke="rgb(0,0,0)" stroke-width="1" opacity="0.803921568627451" d="M 20.5 17 L 21.5 19 L 20.5 17 Z " /><path fill="rgb(0,0,0)" stroke="rgb(0,0,0)" stroke-width="1" opacity="0.803921568627451" d="M 36.5 17 L 37.5 19 L 36.5 17 Z " /><path fill="rgb(0,0,0)" stroke="rgb(0,0,0)" stroke-width="1" opacity="0.803921568627451" d="M 41.5 21 L 42.5 23 L 41.5 21 Z " /><path fill="rgb(0,0,0)" stroke="rgb(0,0,0)" stroke-width="1" opacity="0.803921568627451" d="M 42.5 29 L 41.5 31 L 42.5 29 Z " /><path fill="rgb(0,0,0)" stroke="rgb(0,0,0)" stroke-width="1" opacity="0.803921568627451" d="M 21.5 33 L 20.5 35 L 21.5 33 Z " /><path fill="rgb(0,0,0)" stroke="rgb(0,0,0)" stroke-width="1" opacity="0.803921568627451" d="M 37.5 33 L 36.5 35 L 37.5 33 Z " /><path fill="rgb(0,0,0)" stroke="rgb(0,0,0)" stroke-width="1" opacity="0.803921568627451" d="M 17.5 36 L 15.5 39 L 17.5 36 Z " /><path fill="rgb(0,0,0)" stroke="rgb(0,0,0)" stroke-width="1" opacity="0.803921568627451" d="M 33.5 36 L 31.5 39 L 33.5 36 Z " /><path fill="rgb(0,0,0)" stroke="rgb(0,0,0)" stroke-width="1" opacity="0.803921568627451" d="M 12.5 40 L 11.5 42 L 10 41.5 L 12.5 40 Z " /><path fill="rgb(0,0,0)" stroke="rgb(0,0,0)" stroke-width="1" opacity="0.803921568627451" d="M 28.5 40 L 27.5 42 L 26 41.5 L 28.5 40 Z " /><path fill="rgb(0,0,0)" stroke="rgb(0,0,0)" stroke-width="1" opacity="1" d="M 9.5 11 L 13.5 12 L 23.5 20 L 24 12.5 L 25.5 11 L 29.5 12 L 45 24.5 Q 45.8 28.3 43.5 29 L 29.5 40 L 25.5 41 L 24 39.5 L 23.5 32 L 13.5 40 L 9.5 41 L 8 39.5 L 8 12.5 L 9.5 11 Z " /></svg>